<mxfile host="Electron" modified="2023-10-20T16:14:16.677Z" agent="Mozilla/5.0 (Windows NT 10.0; Win64; x64) AppleWebKit/537.36 (KHTML, like Gecko) draw.io/22.0.2 Chrome/114.0.5735.289 Electron/25.8.4 Safari/537.36" etag="ZeHz9QirpI-a9hb-nLzT" version="22.0.2" type="device">
  <diagram name="Page-1" id="wQKjtVu2AeIriKpFkyNJ">
    <mxGraphModel dx="3471" dy="2038" grid="1" gridSize="10" guides="1" tooltips="1" connect="1" arrows="1" fold="1" page="1" pageScale="1" pageWidth="1100" pageHeight="850" math="0" shadow="0">
      <root>
        <mxCell id="0" />
        <mxCell id="1" parent="0" />
        <mxCell id="HVL1FKVnq5WPFJ0JhcV9-2" value="" style="pointerEvents=1;verticalLabelPosition=bottom;shadow=0;dashed=0;align=center;html=1;verticalAlign=top;shape=mxgraph.electrical.resistors.resistor_2;strokeWidth=4;direction=south;" vertex="1" parent="1">
          <mxGeometry x="280" y="160" width="90" height="450" as="geometry" />
        </mxCell>
        <mxCell id="HVL1FKVnq5WPFJ0JhcV9-3" value="" style="pointerEvents=1;verticalLabelPosition=bottom;shadow=0;dashed=0;align=center;html=1;verticalAlign=top;shape=mxgraph.electrical.resistors.resistor_2;strokeWidth=4;direction=south;" vertex="1" parent="1">
          <mxGeometry x="280" y="710" width="90" height="450" as="geometry" />
        </mxCell>
        <mxCell id="HVL1FKVnq5WPFJ0JhcV9-4" value="" style="endArrow=none;html=1;rounded=0;strokeWidth=4;entryX=0;entryY=0.5;entryDx=0;entryDy=0;entryPerimeter=0;" edge="1" parent="1" target="HVL1FKVnq5WPFJ0JhcV9-2">
          <mxGeometry width="50" height="50" relative="1" as="geometry">
            <mxPoint x="30" y="160" as="sourcePoint" />
            <mxPoint x="500" y="540" as="targetPoint" />
          </mxGeometry>
        </mxCell>
        <mxCell id="HVL1FKVnq5WPFJ0JhcV9-5" value="&lt;font style=&quot;font-size: 100px;&quot; face=&quot;cmu sans serif&quot;&gt;V&lt;sub&gt;in&lt;/sub&gt;&lt;/font&gt;" style="text;html=1;strokeColor=none;fillColor=none;align=center;verticalAlign=middle;whiteSpace=wrap;rounded=0;" vertex="1" parent="1">
          <mxGeometry x="30" y="40" width="140" height="120" as="geometry" />
        </mxCell>
        <mxCell id="HVL1FKVnq5WPFJ0JhcV9-6" value="" style="pointerEvents=1;verticalLabelPosition=bottom;shadow=0;dashed=0;align=center;html=1;verticalAlign=top;shape=mxgraph.electrical.signal_sources.signal_ground;strokeWidth=4;" vertex="1" parent="1">
          <mxGeometry x="265" y="1160" width="120" height="80" as="geometry" />
        </mxCell>
        <mxCell id="HVL1FKVnq5WPFJ0JhcV9-7" value="" style="endArrow=none;html=1;rounded=0;strokeWidth=4;entryX=1;entryY=0.5;entryDx=0;entryDy=0;entryPerimeter=0;exitX=0;exitY=0.5;exitDx=0;exitDy=0;exitPerimeter=0;" edge="1" parent="1" source="HVL1FKVnq5WPFJ0JhcV9-3" target="HVL1FKVnq5WPFJ0JhcV9-2">
          <mxGeometry width="50" height="50" relative="1" as="geometry">
            <mxPoint x="40" y="170" as="sourcePoint" />
            <mxPoint x="335" y="170" as="targetPoint" />
          </mxGeometry>
        </mxCell>
        <mxCell id="HVL1FKVnq5WPFJ0JhcV9-8" value="" style="endArrow=none;html=1;rounded=0;strokeWidth=4;entryX=0;entryY=0.5;entryDx=0;entryDy=0;entryPerimeter=0;" edge="1" parent="1">
          <mxGeometry width="50" height="50" relative="1" as="geometry">
            <mxPoint x="320" y="680" as="sourcePoint" />
            <mxPoint x="625" y="680" as="targetPoint" />
          </mxGeometry>
        </mxCell>
        <mxCell id="HVL1FKVnq5WPFJ0JhcV9-9" value="&lt;font style=&quot;font-size: 100px;&quot; face=&quot;cmu sans serif&quot;&gt;V&lt;sub&gt;out&lt;/sub&gt;&lt;/font&gt;" style="text;html=1;strokeColor=none;fillColor=none;align=center;verticalAlign=middle;whiteSpace=wrap;rounded=0;" vertex="1" parent="1">
          <mxGeometry x="410" y="560" width="140" height="120" as="geometry" />
        </mxCell>
        <mxCell id="HVL1FKVnq5WPFJ0JhcV9-10" value="&lt;font face=&quot;cmu sans serif&quot;&gt;&lt;span style=&quot;font-size: 100px;&quot;&gt;R1&lt;/span&gt;&lt;/font&gt;" style="text;html=1;strokeColor=none;fillColor=none;align=center;verticalAlign=middle;whiteSpace=wrap;rounded=0;" vertex="1" parent="1">
          <mxGeometry x="120" y="325" width="140" height="120" as="geometry" />
        </mxCell>
        <mxCell id="HVL1FKVnq5WPFJ0JhcV9-11" value="&lt;font face=&quot;cmu sans serif&quot;&gt;&lt;span style=&quot;font-size: 100px;&quot;&gt;R2&lt;/span&gt;&lt;/font&gt;" style="text;html=1;strokeColor=none;fillColor=none;align=center;verticalAlign=middle;whiteSpace=wrap;rounded=0;" vertex="1" parent="1">
          <mxGeometry x="120" y="875" width="140" height="120" as="geometry" />
        </mxCell>
        <mxCell id="HVL1FKVnq5WPFJ0JhcV9-12" value="" style="pointerEvents=1;verticalLabelPosition=bottom;shadow=0;dashed=0;align=center;html=1;verticalAlign=top;shape=mxgraph.electrical.resistors.resistor_2;strokeWidth=4;direction=south;" vertex="1" parent="1">
          <mxGeometry x="1720" y="170" width="90" height="450" as="geometry" />
        </mxCell>
        <mxCell id="HVL1FKVnq5WPFJ0JhcV9-25" style="edgeStyle=orthogonalEdgeStyle;rounded=0;orthogonalLoop=1;jettySize=auto;html=1;exitX=1;exitY=0.5;exitDx=0;exitDy=0;exitPerimeter=0;entryX=0;entryY=0.5;entryDx=0;entryDy=0;endArrow=none;endFill=0;strokeWidth=4;" edge="1" parent="1" source="HVL1FKVnq5WPFJ0JhcV9-13" target="HVL1FKVnq5WPFJ0JhcV9-23">
          <mxGeometry relative="1" as="geometry">
            <Array as="points">
              <mxPoint x="1765" y="1210" />
              <mxPoint x="1253" y="1210" />
            </Array>
          </mxGeometry>
        </mxCell>
        <mxCell id="HVL1FKVnq5WPFJ0JhcV9-13" value="" style="pointerEvents=1;verticalLabelPosition=bottom;shadow=0;dashed=0;align=center;html=1;verticalAlign=top;shape=mxgraph.electrical.resistors.resistor_2;strokeWidth=4;direction=south;" vertex="1" parent="1">
          <mxGeometry x="1720" y="720" width="90" height="450" as="geometry" />
        </mxCell>
        <mxCell id="HVL1FKVnq5WPFJ0JhcV9-14" value="" style="endArrow=none;html=1;rounded=0;strokeWidth=4;entryX=0;entryY=0.5;entryDx=0;entryDy=0;entryPerimeter=0;exitX=1;exitY=0.5;exitDx=0;exitDy=0;" edge="1" parent="1" target="HVL1FKVnq5WPFJ0JhcV9-12" source="HVL1FKVnq5WPFJ0JhcV9-23">
          <mxGeometry width="50" height="50" relative="1" as="geometry">
            <mxPoint x="1470" y="170" as="sourcePoint" />
            <mxPoint x="1940" y="550" as="targetPoint" />
            <Array as="points">
              <mxPoint x="1253" y="170" />
            </Array>
          </mxGeometry>
        </mxCell>
        <mxCell id="HVL1FKVnq5WPFJ0JhcV9-15" value="&lt;font face=&quot;cmu sans serif&quot;&gt;&lt;span style=&quot;font-size: 100px;&quot;&gt;3.0 to 4.2V&lt;/span&gt;&lt;/font&gt;" style="text;html=1;strokeColor=none;fillColor=none;align=center;verticalAlign=middle;whiteSpace=wrap;rounded=0;" vertex="1" parent="1">
          <mxGeometry x="820" y="580" width="280" height="220" as="geometry" />
        </mxCell>
        <mxCell id="HVL1FKVnq5WPFJ0JhcV9-17" value="" style="endArrow=none;html=1;rounded=0;strokeWidth=4;entryX=1;entryY=0.5;entryDx=0;entryDy=0;entryPerimeter=0;exitX=0;exitY=0.5;exitDx=0;exitDy=0;exitPerimeter=0;" edge="1" parent="1" source="HVL1FKVnq5WPFJ0JhcV9-13" target="HVL1FKVnq5WPFJ0JhcV9-12">
          <mxGeometry width="50" height="50" relative="1" as="geometry">
            <mxPoint x="1480" y="180" as="sourcePoint" />
            <mxPoint x="1775" y="180" as="targetPoint" />
          </mxGeometry>
        </mxCell>
        <mxCell id="HVL1FKVnq5WPFJ0JhcV9-18" value="" style="endArrow=none;html=1;rounded=0;strokeWidth=4;entryX=0;entryY=0.5;entryDx=0;entryDy=0;entryPerimeter=0;" edge="1" parent="1">
          <mxGeometry width="50" height="50" relative="1" as="geometry">
            <mxPoint x="1760" y="690" as="sourcePoint" />
            <mxPoint x="2065" y="690" as="targetPoint" />
          </mxGeometry>
        </mxCell>
        <mxCell id="HVL1FKVnq5WPFJ0JhcV9-19" value="&lt;font style=&quot;font-size: 100px;&quot; face=&quot;cmu sans serif&quot;&gt;V&lt;sub&gt;meas&lt;/sub&gt;&lt;/font&gt;" style="text;html=1;strokeColor=none;fillColor=none;align=center;verticalAlign=middle;whiteSpace=wrap;rounded=0;" vertex="1" parent="1">
          <mxGeometry x="1850" y="570" width="140" height="120" as="geometry" />
        </mxCell>
        <mxCell id="HVL1FKVnq5WPFJ0JhcV9-20" value="&lt;font face=&quot;cmu sans serif&quot;&gt;&lt;span style=&quot;font-size: 100px;&quot;&gt;2.7 kΩ&lt;/span&gt;&lt;/font&gt;" style="text;html=1;strokeColor=none;fillColor=none;align=center;verticalAlign=middle;whiteSpace=wrap;rounded=0;" vertex="1" parent="1">
          <mxGeometry x="1410" y="335" width="290" height="120" as="geometry" />
        </mxCell>
        <mxCell id="HVL1FKVnq5WPFJ0JhcV9-22" value="&lt;font face=&quot;cmu sans serif&quot;&gt;&lt;span style=&quot;font-size: 100px;&quot;&gt;10 kΩ&lt;/span&gt;&lt;/font&gt;" style="text;html=1;strokeColor=none;fillColor=none;align=center;verticalAlign=middle;whiteSpace=wrap;rounded=0;" vertex="1" parent="1">
          <mxGeometry x="1410" y="885" width="290" height="120" as="geometry" />
        </mxCell>
        <mxCell id="HVL1FKVnq5WPFJ0JhcV9-23" value="" style="pointerEvents=1;verticalLabelPosition=bottom;shadow=0;dashed=0;align=center;html=1;verticalAlign=top;shape=mxgraph.electrical.miscellaneous.batteryStack;strokeWidth=5;rotation=-90;" vertex="1" parent="1">
          <mxGeometry x="1020" y="540" width="466.67" height="280" as="geometry" />
        </mxCell>
      </root>
    </mxGraphModel>
  </diagram>
</mxfile>
